# xmcd
#
# Track frame offsets:
#	150
#	33668
#	61804
#	86015
#	131975
#	155033
#	182246
#	228444
#	247446
#
# Disc length: 3800 seconds
# Revision: 0
# Processed by: cddbd v1.5.2PL0 Copyright (c) Steve Scherf et al.
# Submitted via: dBpowerAMP V12.0
#
DISCID=850ed609
DTITLE=Darrell Scott - Live In NC
DYEAR=2004
DGENRE=Country
TTITLE0=Miracle Of Living
TTITLE1=It's the Whiskey That Eases the Pain
TTITLE2=With A Memory Like Mine
TTITLE3=River Take Me
TTITLE4=Helen Of Troy, PA
TTITLE5=You'll Never Leave Harlan Alive
TTITLE6=Folsom Prison Blues-White Freightliner Blues
TTITLE7=I Still Miss Someone
TTITLE8=Wayfaring Pilgrim
EXTD=
EXTT0=
EXTT1=
EXTT2=
EXTT3=
EXTT4=
EXTT5=
EXTT6=
EXTT7=
EXTT8=
PLAYORDER=
